<svg width="85" height="81" viewBox="0 0 85 81" fill="none" xmlns="http://www.w3.org/2000/svg">
<g filter="url(#filter0_d_1_53)">
<path d="M29.3505 22.69L7.0205 25.9275L6.625 26.008C6.02628 26.1669 5.48048 26.4819 5.04332 26.9208C4.60616 27.3597 4.29331 27.9067 4.13671 28.506C3.98012 29.1054 3.98539 29.7355 4.15199 30.3322C4.31859 30.9288 4.64056 31.4705 5.085 31.902L21.262 47.6485L17.447 69.891L17.4015 70.276C17.3648 70.8952 17.4934 71.5131 17.7741 72.0663C18.0547 72.6195 18.4773 73.0881 18.9987 73.4243C19.52 73.7605 20.1213 73.952 20.741 73.9794C21.3607 74.0067 21.9766 73.8689 22.5255 73.58L42.4965 63.08L62.422 73.58L62.772 73.741C63.3497 73.9686 63.9776 74.0383 64.5911 73.9432C65.2047 73.848 65.7819 73.5913 66.2636 73.1994C66.7452 72.8076 67.1139 72.2946 67.3319 71.7132C67.5499 71.1318 67.6093 70.5029 67.504 69.891L63.6855 47.6485L79.8695 31.8985L80.1425 31.601C80.5325 31.1207 80.7882 30.5456 80.8835 29.9343C80.9789 29.323 80.9105 28.6973 80.6853 28.1211C80.4601 27.5448 80.0862 27.0385 79.6017 26.6538C79.1172 26.2691 78.5393 26.0197 77.927 25.931L55.597 22.69L45.615 2.46C45.3262 1.87387 44.879 1.3803 44.3242 1.03517C43.7693 0.690029 43.1289 0.507107 42.4755 0.507107C41.8221 0.507107 41.1817 0.690029 40.6268 1.03517C40.072 1.3803 39.6248 1.87387 39.336 2.46L29.3505 22.69Z" fill="#FACC15"/>
<path d="M29.3505 22.69L7.0205 25.9275L6.625 26.008C6.02628 26.1669 5.48048 26.4819 5.04332 26.9208C4.60616 27.3597 4.29331 27.9067 4.13671 28.506C3.98012 29.1054 3.98539 29.7355 4.15199 30.3322C4.31859 30.9288 4.64056 31.4705 5.085 31.902L21.262 47.6485L17.447 69.891L17.4015 70.276C17.3648 70.8952 17.4934 71.5131 17.7741 72.0663C18.0547 72.6195 18.4773 73.0881 18.9987 73.4243C19.52 73.7605 20.1213 73.952 20.741 73.9794C21.3607 74.0067 21.9766 73.8689 22.5255 73.58L42.4965 63.08L62.422 73.58L62.772 73.741C63.3497 73.9686 63.9776 74.0383 64.5911 73.9432C65.2047 73.848 65.7819 73.5913 66.2636 73.1994C66.7452 72.8076 67.1139 72.2946 67.3319 71.7132C67.5499 71.1318 67.6093 70.5029 67.504 69.891L63.6855 47.6485L79.8695 31.8985L80.1425 31.601C80.5325 31.1207 80.7882 30.5456 80.8835 29.9343C80.9789 29.323 80.9105 28.6973 80.6853 28.1211C80.4601 27.5448 80.0862 27.0385 79.6017 26.6538C79.1172 26.2691 78.5393 26.0197 77.927 25.931L55.597 22.69L45.615 2.46C45.3262 1.87387 44.879 1.3803 44.3242 1.03517C43.7693 0.690029 43.1289 0.507107 42.4755 0.507107C41.8221 0.507107 41.1817 0.690029 40.6268 1.03517C40.072 1.3803 39.6248 1.87387 39.336 2.46L29.3505 22.69Z" stroke="#FACC15"/>
</g>
<defs>
<filter id="filter0_d_1_53" x="0.0230331" y="0.507107" width="84.9023" height="81.4774" filterUnits="userSpaceOnUse" color-interpolation-filters="sRGB">
<feFlood flood-opacity="0" result="BackgroundImageFix"/>
<feColorMatrix in="SourceAlpha" type="matrix" values="0 0 0 0 0 0 0 0 0 0 0 0 0 0 0 0 0 0 127 0" result="hardAlpha"/>
<feOffset dy="4"/>
<feGaussianBlur stdDeviation="2"/>
<feComposite in2="hardAlpha" operator="out"/>
<feColorMatrix type="matrix" values="0 0 0 0 0 0 0 0 0 0 0 0 0 0 0 0 0 0 0.25 0"/>
<feBlend mode="normal" in2="BackgroundImageFix" result="effect1_dropShadow_1_53"/>
<feBlend mode="normal" in="SourceGraphic" in2="effect1_dropShadow_1_53" result="shape"/>
</filter>
</defs>
</svg>
