<svg width="77" height="74" viewBox="0 0 77 74" fill="none" xmlns="http://www.w3.org/2000/svg">
<path d="M25.3505 22.69L3.0205 25.9275L2.625 26.008C2.02629 26.1669 1.48049 26.4819 1.04333 26.9208C0.606168 27.3597 0.293317 27.9067 0.136722 28.506C-0.0198725 29.1054 -0.0145999 29.7355 0.152001 30.3322C0.318602 30.9288 0.640563 31.4705 1.085 31.902L17.262 47.6485L13.447 69.891L13.4015 70.276C13.3649 70.8952 13.4934 71.5131 13.7741 72.0663C14.0547 72.6195 14.4773 73.0881 14.9987 73.4243C15.52 73.7605 16.1213 73.952 16.741 73.9794C17.3607 74.0067 17.9766 73.8689 18.5255 73.58L38.4965 63.08L58.422 73.58L58.772 73.741C59.3497 73.9686 59.9776 74.0383 60.5911 73.9432C61.2047 73.848 61.7819 73.5913 62.2636 73.1994C62.7452 72.8076 63.1139 72.2946 63.3319 71.7132C63.5499 71.1318 63.6093 70.5029 63.504 69.891L59.6855 47.6485L75.8695 31.8985L76.1425 31.601C76.5325 31.1207 76.7882 30.5456 76.8835 29.9343C76.9789 29.323 76.9105 28.6973 76.6853 28.1211C76.4601 27.5448 76.0862 27.0385 75.6017 26.6538C75.1172 26.2691 74.5393 26.0197 73.927 25.931L51.597 22.69L41.615 2.46C41.3262 1.87387 40.879 1.3803 40.3242 1.03517C39.7693 0.690029 39.1289 0.507107 38.4755 0.507107C37.8221 0.507107 37.1817 0.690029 36.6268 1.03517C36.072 1.3803 35.6248 1.87387 35.336 2.46L25.3505 22.69Z" fill="#E2E8F0"/>
</svg>
